<svg xmlns="http://www.w3.org/2000/svg" viewBox="0 0 1433 1433">
  <g id="wings" fill="#000000">
    <path d="M0 0 C2.684 2.373 4.004 4.748 5.496 7.988 C6.2 9.495 6.2 9.495 6.919 11.032 C7.671 12.656 7.671 12.656 8.438 14.312 C12.319 22.551 16.326 30.664 20.75 38.625 C25.678 47.497 30.372 56.47 35 65.5 C39.973 75.195 45.026 84.829 50.286 94.372 C54.91 102.782 59.395 111.263 63.875 119.75 C71.51 134.207 79.213 148.624 87 163 C87.512 163.947 88.024 164.895 88.552 165.871 C94.634 177.112 100.828 188.282 107.145 199.393 C110.842 205.909 114.441 212.471 118 219.062 C123.053 228.4 128.389 237.547 133.828 246.664 C136.873 251.769 139.849 256.911 142.812 262.062 C146.702 268.806 150.684 275.479 154.807 282.084 C156.256 284.412 157.697 286.745 159.137 289.078 C160.279 290.927 161.421 292.776 162.562 294.625 C163.093 295.484 163.623 296.343 164.169 297.228 C171.117 308.458 178.289 319.521 185.625 330.5 C186.063 331.157 186.502 331.813 186.954 332.489 C189.964 336.996 192.98 341.499 196 346 C196.67 346.999 197.341 347.998 198.031 349.028 C203.974 357.863 210.038 366.516 216.605 374.898 C220.47 379.904 224.102 385.07 227.75 390.234 C229.823 393.163 231.912 396.081 234 399 C234.836 400.171 235.672 401.341 236.508 402.512 C238.147 404.807 239.788 407.101 241.43 409.395 C242.245 410.534 243.06 411.673 243.875 412.812 C244.486 413.666 244.486 413.666 245.109 414.537 C247.404 417.748 249.683 420.969 251.945 424.203 C257.227 431.747 262.586 439.175 268.25 446.438 C271.013 449.993 273.696 453.606 276.383 457.22 C283.239 466.432 290.282 475.445 297.597 484.297 C299.581 486.705 301.538 489.136 303.5 491.562 C308.64 497.837 313.976 503.939 319.306 510.052 C320.978 511.974 322.641 513.904 324.301 515.836 C330.056 522.526 335.89 529.119 341.903 535.579 C344.481 538.349 347.025 541.137 349.5 544 C357.096 552.757 365.033 561.177 373.332 569.27 C375.357 571.342 377.242 573.421 379.122 575.618 C383.134 580.219 387.394 584.538 391.715 588.848 C392.529 589.663 393.344 590.479 394.183 591.319 C395.896 593.032 397.609 594.744 399.324 596.454 C401.93 599.055 404.531 601.661 407.131 604.268 C408.804 605.94 410.478 607.613 412.152 609.285 C412.92 610.055 413.688 610.825 414.479 611.618 C418.599 615.72 422.795 619.661 427.219 623.433 C429.06 625.053 430.784 626.75 432.5 628.5 C436.163 632.212 440.041 635.608 444 639 C445.09 639.942 446.18 640.885 447.27 641.828 C454.065 647.698 460.868 653.541 468 659 C468.607 659.47 469.215 659.94 469.84 660.425 C493.489 678.607 521.352 690.468 549.158 700.901 C552 702 554.779 703.2 557.562 704.438 C581.669 714.456 608.216 718.85 634 722 C635.215 722.159 636.43 722.318 637.681 722.482 C648.811 723.906 659.919 724.622 671.125 725.125 C672.029 725.167 672.933 725.208 673.864 725.251 C742.985 728.412 835.621 725.13 891.238 677.41 C893.07 675.944 894.894 675.016 897 674 C895.106 680.007 892.915 685.766 890.312 691.5 C889.967 692.268 889.621 693.037 889.264 693.828 C888.182 696.222 887.092 698.611 886 701 C885.652 701.766 885.304 702.531 884.946 703.32 C883.93 705.55 882.904 707.776 881.875 710 C881.575 710.657 881.275 711.314 880.966 711.99 C878.357 717.564 875.206 722.753 872 728 C871.044 729.607 870.091 731.215 869.141 732.824 C861.444 745.797 853.74 758.741 844.129 770.41 C841.534 773.567 839.018 776.782 836.5 780 C835.564 781.19 834.628 782.38 833.691 783.57 C831.981 785.745 830.282 787.928 828.59 790.117 C827.88 791.027 827.169 791.937 826.438 792.875 C825.817 793.677 825.197 794.479 824.559 795.305 C824.044 795.864 823.53 796.424 823 797 C822.34 797 821.68 797 821 797 C820.765 797.563 820.531 798.127 820.289 798.707 C818.698 801.537 816.687 803.408 814.375 805.688 C808.478 812.052 805.336 819.004 801.92 826.903 C797.729 836.453 792.695 845.46 787.102 854.253 C785.925 856.119 784.772 857.997 783.621 859.879 C778.451 868.307 772.998 876.444 767.155 884.42 C766.077 885.894 765.011 887.376 763.945 888.859 C760.305 893.918 756.587 898.916 752.812 903.875 C752.015 904.924 751.217 905.974 750.395 907.055 C748.063 909.923 745.658 912.441 743 915 C742.694 907.271 743.554 899.853 744.596 892.203 C748.499 863.131 749.59 834.28 748 805 C745.032 807.784 743.765 810.411 742.188 814.188 C741.801 815.109 741.801 815.109 741.406 816.049 C739.511 820.617 737.773 825.236 736.062 829.875 C731.322 842.657 725.804 854.677 719.118 866.568 C716.584 871.082 714.17 875.609 711.94 880.281 C704.855 895.114 694.883 907.698 684.416 920.28 C682.585 922.505 680.826 924.783 679.062 927.062 C666.794 942.424 652.435 956.852 637 969 C635.928 969.883 634.857 970.769 633.789 971.656 C618.225 984.498 601.518 995.993 584 1006 C582.682 1006.771 581.364 1007.543 580.047 1008.316 C570.294 1014 570.294 1014 568 1014 C569.355 1010.439 570.931 1007.131 572.758 1003.789 C573.567 1002.304 573.567 1002.304 574.392 1000.789 C574.964 999.745 575.536 998.701 576.125 997.625 C577.306 995.452 578.487 993.279 579.668 991.105 C581.883 987.04 584.108 982.98 586.361 978.935 C594.076 964.625 599.028 949.363 604 933.938 C604.31 932.978 604.62 932.019 604.94 931.031 C610.463 913.926 615.384 896.837 619.57 879.355 C619.798 878.404 620.027 877.453 620.262 876.474 C622.534 866.989 624.772 857.496 627 848 C626.34 848 625.68 848 625 848 C624.762 848.672 624.523 849.343 624.277 850.035 C615.24 871.012 597.337 890.055 581.188 905.816 C579.23 907.771 577.416 909.769 575.625 911.875 C569.008 919.587 561.648 926.798 553.902 933.371 C552.58 934.504 551.282 935.665 550.004 936.848 C539.722 946.337 528.016 953.9 516 961 C514.894 961.684 513.788 962.369 512.648 963.074 C481.934 981.66 444.527 992.055 410 1001 C408.93 1001.28 407.86 1001.559 406.758 1001.847 C405.683 1002.123 404.608 1002.399 403.5 1002.684 C402.52 1002.936 401.541 1003.187 400.531 1003.447 C398 1004 398 1004 395 1004 C396.322 1001.104 397.78 998.957 399.938 996.625 C403.683 992.438 407.148 988.057 410.597 983.627 C413.543 979.848 416.525 976.103 419.542 972.38 C425.159 965.435 430.477 958.343 435.588 951.018 C437.19 948.729 438.804 946.448 440.418 944.168 C463.761 911.124 488.526 873.819 501 835 C494.931 839.816 489.089 844.768 483.438 850.062 C478.156 854.991 472.746 859.614 467 864 C466.424 864.443 465.848 864.886 465.255 865.343 C455.758 872.638 446.063 879.51 436 886 C435.269 886.474 434.538 886.949 433.785 887.438 C423.217 894.281 412.491 900.686 401.419 906.679 C398.816 908.1 396.232 909.552 393.648 911.008 C382.052 917.506 370.426 923.267 358 928 C356.838 928.446 356.838 928.446 355.653 928.9 C296.96 951.124 227.225 961.022 165 950 C166.207 946.379 166.969 946.16 170.207 944.355 C171.538 943.598 171.538 943.598 172.895 942.825 C173.858 942.285 174.821 941.744 175.812 941.188 C187.013 934.741 197.564 927.612 208 920 C208.616 919.551 209.232 919.102 209.867 918.64 C224.955 907.593 239.259 895.607 252.926 882.855 C255.708 880.261 258.534 877.719 261.375 875.188 C268.805 868.646 268.805 868.646 275 861 C275.66 861 276.32 861 277 861 C277.223 860.448 277.446 859.897 277.676 859.328 C279.416 856.269 281.658 854.193 284.188 851.75 C291.698 844.381 298.286 836.456 304.881 828.273 C308.096 824.298 311.369 820.391 314.736 816.543 C322.215 807.994 328.964 799.241 334 789 C328.83 790.741 323.664 792.492 318.5 794.25 C317.706 794.52 316.913 794.79 316.095 795.068 C305.287 798.755 294.592 802.639 283.938 806.75 C251.375 819.238 217.775 829.357 184 838 C182.756 838.323 181.512 838.646 180.231 838.979 C139.389 849.57 139.389 849.57 121.355 849.949 C119.702 849.985 118.048 850.034 116.395 850.094 C81.251 851.327 48.875 843.333 17 829 C16.185 828.637 15.37 828.275 14.53 827.901 C4.667 823.489 -4.698 818.493 -14 813 C-16.33 811.66 -18.664 810.33 -21 809 C-20.67 808.01 -20.34 807.02 -20 806 C-17.229 805.084 -17.229 805.084 -13.477 804.309 C-12.067 804.006 -10.657 803.704 -9.247 803.401 C-8.496 803.245 -7.744 803.089 -6.97 802.928 C-2.957 802.089 1.043 801.195 5.043 800.297 C6.285 800.018 6.285 800.018 7.551 799.734 C68.241 785.93 125.951 760.505 182 734 C183.368 733.361 184.737 732.723 186.105 732.086 C197.584 726.732 208.967 721.212 220.156 715.273 C221.458 714.583 221.458 714.583 222.786 713.878 C224.487 712.973 226.186 712.063 227.882 711.149 C228.651 710.739 229.419 710.329 230.211 709.906 C230.895 709.538 231.578 709.17 232.283 708.791 C234 708 234 708 236 708 C236 707.34 236 706.68 236 706 C235.267 706.116 234.534 706.233 233.779 706.353 C226.711 707.474 219.642 708.592 212.572 709.704 C208.942 710.276 205.312 710.849 201.682 711.426 C142.798 720.781 142.798 720.781 124.562 720.438 C123.566 720.427 123.566 720.427 122.549 720.416 C60.298 719.737 2.784 704.999 -48.445 668.781 C-50.938 667.043 -53.461 665.368 -56.008 663.711 C-71.052 653.921 -84.854 643.225 -98 631 C-99.197 629.896 -100.393 628.792 -101.59 627.688 C-121.962 608.834 -121.962 608.834 -127 602 C-127 601.34 -127 600.68 -127 600 C-125.407 600.196 -125.407 600.196 -123.783 600.396 C-78.324 605.954 -32.754 610.214 13.035 611.614 C14.581 611.661 16.127 611.711 17.672 611.763 C42.21 612.569 66.714 610.767 91.168 608.912 C93.347 608.747 95.526 608.584 97.705 608.421 C127.884 606.156 158.061 603.499 188 599 C184.816 597.23 181.792 596.375 178.242 595.59 C177.078 595.328 175.915 595.065 174.716 594.795 C172.815 594.371 172.815 594.371 170.875 593.938 C128.45 584.227 87.216 571.117 46.125 556.812 C45.233 556.503 44.342 556.193 43.423 555.873 C5.879 542.789 -30.655 522.187 -59.898 494.949 C-61.779 493.205 -63.706 491.565 -65.688 489.938 C-68.823 487.27 -71.468 484.319 -74.129 481.184 C-76.137 478.84 -78.221 476.581 -80.312 474.312 C-85.565 468.475 -90.324 462.3 -95 456 C-95.495 455.335 -95.99 454.669 -96.5 453.984 C-110.207 435.49 -122.349 416.413 -133 396 C-133.369 395.295 -133.739 394.589 -134.119 393.862 C-136.501 389.283 -138.77 384.655 -141 380 C-141.395 379.185 -141.79 378.371 -142.196 377.531 C-148.347 364.77 -153.773 351.794 -158.812 338.562 C-159.079 337.863 -159.346 337.163 -159.62 336.443 C-161.176 332.346 -162.708 328.241 -164.218 324.128 C-164.76 322.652 -165.305 321.178 -165.852 319.704 C-166.706 317.398 -167.548 315.089 -168.387 312.777 C-168.649 312.072 -168.911 311.368 -169.182 310.641 C-170.496 306.978 -171.316 303.901 -171 300 C-167.288 301.643 -164.318 303.949 -161.125 306.438 C-160.555 306.88 -159.985 307.322 -159.397 307.778 C-156.486 310.041 -153.591 312.321 -150.703 314.613 C-141.736 321.724 -132.581 328.551 -123.333 335.293 C-121.231 336.831 -119.139 338.381 -117.051 339.938 C-106.415 347.804 -95.433 355.151 -84.438 362.5 C-83.645 363.031 -82.853 363.562 -82.036 364.109 C-79.734 365.65 -77.428 367.185 -75.121 368.719 C-74.437 369.177 -73.753 369.635 -73.049 370.106 C-68.837 372.894 -64.542 375.429 -60.099 377.833 C-56.401 379.889 -52.87 382.21 -49.312 384.5 C-42.116 389.087 -34.847 393.533 -27.5 397.875 C-26.176 398.659 -26.176 398.659 -24.825 399.459 C-19.592 402.537 -14.307 405.497 -8.969 408.388 C-5.673 410.177 -2.39 411.989 0.891 413.805 C2.099 414.473 3.308 415.142 4.516 415.81 C5.432 416.317 5.432 416.317 6.366 416.833 C11.907 419.896 17.453 422.949 23 426 C24.233 426.679 24.233 426.679 25.491 427.372 C33.493 431.762 41.637 435.787 49.903 439.653 C54.191 441.659 58.443 443.71 62.656 445.868 C70.606 449.94 78.713 453.622 86.875 457.25 C88.016 457.758 89.158 458.265 90.334 458.788 C95.986 461.284 101.657 463.69 107.405 465.955 C110.442 467.178 113.447 468.466 116.453 469.762 C117.567 470.241 118.681 470.719 119.828 471.213 C122.127 472.203 124.424 473.198 126.719 474.197 C127.827 474.672 128.936 475.147 130.078 475.637 C131.072 476.067 132.067 476.497 133.091 476.94 C136.066 478.024 138.868 478.58 142 479 C141.552 478.554 141.104 478.108 140.642 477.649 C135.951 472.98 131.263 468.307 126.576 463.631 C124.831 461.891 123.084 460.151 121.336 458.412 C118.814 455.902 116.295 453.389 113.777 450.875 C113.004 450.107 112.231 449.339 111.434 448.548 C107.294 444.407 103.315 440.187 99.5 435.743 C97.229 433.104 94.863 430.558 92.5 428 C88.854 424.042 85.257 420.049 81.734 415.98 C79.727 413.689 77.676 411.44 75.625 409.188 C71.673 404.814 67.947 400.29 64.242 395.707 C62.105 393.127 59.893 390.653 57.625 388.188 C52.607 382.666 48.048 376.839 43.502 370.93 C41.956 368.944 40.38 366.985 38.797 365.027 C31.089 355.388 24.972 345.406 19.3 334.457 C18.066 332.125 16.772 329.843 15.445 327.562 C7.411 313.517 2.645 298.417 -2 283 C-2.32 281.941 -2.64 280.883 -2.97 279.792 C-10.754 253.525 -12.027 226.184 -14 199 C-14.075 197.99 -14.15 196.979 -14.227 195.938 C-18.626 134.459 -11.778 72.399 -2.707 11.688 C-2.55 10.62 -2.393 9.552 -2.231 8.452 C-2.01 6.997 -2.01 6.997 -1.784 5.512 C-1.657 4.661 -1.529 3.809 -1.397 2.932 C-1 1 -1 1 0 0 Z M627 846 C628 848 628 848 628 848 Z "/>
  </g>
  <g id="basketball" fill="#2e6dce">
    <path d="M0 0 C-0.005 0.708 -0.01 1.416 -0.016 2.145 C-0.368 57.392 8.013 110.435 31.1 161.023 C32.01 163.022 32.903 165.028 33.797 167.035 C47.418 197.212 66.795 228.687 90.848 251.773 C92 253 92 253 92 255 C92.66 255 93.32 255 94 255 C95.382 256.626 96.719 258.293 98 260 C96.676 263.701 95.057 266.521 92.656 269.625 C91.992 270.49 91.327 271.355 90.643 272.247 C89.936 273.155 89.229 274.064 88.5 275 C87.777 275.938 87.054 276.877 86.308 277.843 C84.865 279.715 83.42 281.584 81.972 283.452 C80.318 285.589 78.672 287.733 77.035 289.883 C72.472 295.871 67.803 301.758 63.008 307.562 C60.981 310.023 58.986 312.507 57 315 C53.368 314.442 51.981 313.223 49.688 310.406 C46.255 306.301 42.673 302.39 39 298.5 C37.686 297.104 36.372 295.708 35.059 294.312 C34.057 293.249 34.057 293.249 33.035 292.164 C31.009 290.01 28.99 287.85 26.973 285.688 C21.341 279.654 15.719 273.636 9.824 267.857 C8.057 266.058 6.417 264.2 4.781 262.281 C1.045 257.984 -2.936 253.986 -7 250 C-8.357 248.669 -9.711 247.336 -11.062 246 C-11.652 245.423 -12.241 244.845 -12.848 244.25 C-14.681 242.334 -16.407 240.378 -18.134 238.368 C-21.927 234.024 -25.929 229.93 -30.011 225.859 C-30.78 225.089 -31.548 224.319 -32.34 223.525 C-34.858 221.003 -37.38 218.484 -39.902 215.965 C-41.667 214.2 -43.431 212.434 -45.196 210.669 C-49.356 206.507 -53.519 202.347 -57.682 198.189 C-60.991 194.884 -64.297 191.577 -67.601 188.268 C-72.178 183.686 -76.758 179.105 -81.339 174.527 C-83.078 172.789 -84.815 171.051 -86.552 169.311 C-88.986 166.876 -91.422 164.443 -93.859 162.011 C-94.922 160.946 -94.922 160.946 -96.005 159.859 C-99.982 155.899 -104.06 152.117 -108.316 148.46 C-110.298 146.741 -112.164 144.936 -114 143.062 C-114.66 142.395 -115.32 141.727 -116 141.039 C-117.333 139.68 -118.667 138.32 -120 136.961 C-123.946 132.969 -127.997 129.19 -132.25 125.527 C-134.263 123.771 -136.145 121.921 -138 120 C-140.58 117.38 -143.211 114.897 -146 112.5 C-148.789 110.103 -151.42 107.62 -154 105 C-157.061 101.898 -160.231 99.019 -163.535 96.18 C-166.92 93.187 -170.206 90.092 -173.5 87 C-177.889 82.884 -182.294 78.815 -186.859 74.895 C-189.276 72.756 -191.626 70.554 -193.979 68.345 C-199.575 63.095 -205.251 58.075 -211.246 53.277 C-216.348 49.058 -221.162 44.517 -226 40 C-225 37 -225 37 -222.115 35.485 C-220.827 34.942 -219.535 34.411 -218.238 33.891 C-217.545 33.603 -216.851 33.315 -216.136 33.019 C-213.867 32.083 -211.59 31.165 -209.312 30.25 C-208.538 29.935 -207.764 29.621 -206.967 29.296 C-195.299 24.556 -183.593 20.21 -171.483 16.719 C-168.974 15.992 -166.477 15.232 -163.98 14.465 C-124.209 2.433 -39.049 -19.524 0 0 Z "/>
<path d="M0 0 C8.893 0.472 17.284 1.933 25.938 4 C26.898 4.227 26.898 4.227 27.879 4.459 C62.129 12.591 95.696 24.686 126.952 40.939 C129.142 42.073 131.342 43.187 133.543 44.301 C142.103 48.673 150.416 53.333 158.562 58.438 C159.378 58.946 160.194 59.454 161.034 59.978 C161.787 60.458 162.541 60.939 163.316 61.434 C163.981 61.857 164.646 62.28 165.33 62.717 C167 64 167 64 169 67 C168.484 69.315 168.484 69.315 167.395 72.066 C166.994 73.095 166.594 74.124 166.181 75.184 C165.729 76.299 165.278 77.414 164.812 78.562 C164.351 79.728 163.889 80.893 163.413 82.094 C161.959 85.737 160.483 89.369 159 93 C158.57 94.063 158.139 95.127 157.696 96.222 C147.572 121.132 136.55 146.104 122.964 169.339 C121.594 171.7 120.296 174.098 119 176.5 C118.537 177.348 118.074 178.196 117.598 179.07 C116.726 180.669 115.855 182.269 114.988 183.87 C106.402 199.705 97.076 215.068 87 230 C82.315 229.154 80.279 226.288 77.375 222.75 C76.844 222.113 76.312 221.476 75.765 220.82 C74.164 218.89 72.58 216.947 71 215 C70.193 214.018 69.386 213.035 68.555 212.023 C44.951 182.339 26.478 148.144 15 112 C14.705 111.08 14.41 110.161 14.106 109.213 C9.182 93.68 5.74 78.054 3 62 C2.664 60.084 2.664 60.084 2.32 58.129 C-0.145 42.635 -1.174 26.741 -1.188 11.062 C-1.188 10.175 -1.189 9.287 -1.19 8.373 C-1.135 2.271 -1.135 2.271 0 0 Z "/>
<path d="M0 0 C6.737 3.579 12.411 9.898 18 15 C21.689 18.285 25.425 21.514 29.188 24.715 C36.014 30.528 42.719 36.435 49.305 42.52 C55.527 48.326 55.527 48.326 62.219 53.562 C62.807 54.037 63.394 54.511 64 55 C64 55.66 64 56.32 64 57 C64.572 57.244 65.145 57.487 65.734 57.738 C68.404 59.225 70.138 60.981 72.25 63.188 C75.638 66.718 79.192 69.945 82.886 73.146 C86.33 76.166 89.664 79.299 93 82.438 C93.701 83.095 94.401 83.752 95.123 84.43 C99.26 88.324 103.318 92.28 107.301 96.332 C109.036 98.035 110.837 99.612 112.688 101.188 C117.053 104.933 121.064 109.007 125.081 113.118 C127.861 115.943 130.694 118.633 133.706 121.21 C137.996 124.947 142.033 128.892 146.049 132.92 C146.81 133.678 147.57 134.437 148.353 135.219 C150.844 137.705 153.33 140.194 155.816 142.684 C157.559 144.426 159.302 146.168 161.045 147.91 C164.689 151.552 168.331 155.196 171.971 158.841 C176.624 163.499 181.28 168.153 185.939 172.805 C189.536 176.398 193.131 179.994 196.725 183.591 C198.441 185.307 200.157 187.023 201.874 188.738 C204.279 191.14 206.68 193.545 209.08 195.951 C209.781 196.65 210.482 197.349 211.204 198.069 C215.136 202.017 218.888 206.068 222.519 210.295 C224.381 212.439 226.35 214.448 228.375 216.438 C229.133 217.188 229.891 217.938 230.672 218.711 C231.44 219.466 232.208 220.222 233 221 C238.011 225.927 242.864 230.892 247.445 236.223 C249.522 238.597 251.741 240.8 254 243 C257.607 246.564 260.995 250.219 264.289 254.07 C266.118 256.133 268.036 258.066 270 260 C273.16 263.118 276.111 266.339 278.988 269.719 C280.594 271.54 282.229 273.289 283.918 275.031 C284.426 275.563 284.934 276.094 285.458 276.642 C286.473 277.7 287.497 278.749 288.532 279.788 C291.992 283.426 291.992 283.426 292.031 286.133 C290.79 288.38 289.379 289.877 287.5 291.625 C284.882 294.036 284.882 294.036 283 297 C282.34 297 281.68 297 281 297 C280.756 297.57 280.512 298.14 280.261 298.727 C278.771 301.413 277.011 303.215 274.824 305.371 C273.996 306.193 273.168 307.015 272.314 307.861 C271.448 308.711 270.581 309.562 269.688 310.438 C268.832 311.284 267.977 312.13 267.096 313.002 C265.445 314.634 263.793 316.265 262.139 317.893 C259.747 320.25 257.37 322.621 255 325 C254.035 325.965 253.07 326.93 252.105 327.895 C251.625 328.375 251.145 328.855 250.65 329.35 C248.434 331.566 246.217 333.783 244 336 C240.877 334.644 239.087 333.23 236.969 330.578 C236.133 329.544 236.133 329.544 235.28 328.49 C234.399 327.381 234.399 327.381 233.5 326.25 C232.248 324.704 230.996 323.158 229.742 321.613 C229.115 320.838 228.489 320.063 227.843 319.264 C221.493 311.463 215.029 303.79 207.793 296.793 C205.919 294.919 204.213 292.958 202.5 290.938 C199.529 287.478 196.305 284.529 192.836 281.578 C189.809 278.977 187.064 276.11 184.305 273.23 C179.782 268.588 175.013 264.451 169.957 260.398 C167.449 258.364 164.998 256.279 162.56 254.161 C149.256 242.658 134.807 232.47 120 223 C119.241 222.512 118.481 222.024 117.699 221.521 C58.016 183.357 -8.775 157.852 -79 148 C-80.399 147.794 -80.399 147.794 -81.826 147.583 C-99.319 145.054 -116.855 144.312 -134.499 143.646 C-135.442 143.609 -136.384 143.573 -137.356 143.535 C-139.147 143.466 -140.938 143.402 -142.729 143.342 C-148.778 143.111 -148.778 143.111 -151 142 C-149.357 136.847 -146.229 132.867 -143.062 128.562 C-142.191 127.368 -142.191 127.368 -141.301 126.15 C-126.091 105.422 -109.391 86.332 -91.25 68.125 C-90.363 67.233 -89.475 66.341 -88.561 65.422 C-83.534 60.407 -78.405 55.603 -73 51 C-71.554 49.732 -71.554 49.732 -70.078 48.438 C-22.631 7.544 -22.631 7.544 0 0 Z "/>
<path d="M0 0 C3.864 0.589 5.988 2.382 8.938 4.875 C9.913 5.696 10.889 6.517 11.895 7.363 C12.661 8.016 12.661 8.016 13.444 8.682 C14.955 9.962 16.483 11.222 18.012 12.48 C31.062 23.262 44.324 34.836 55.312 47.75 C58.058 50.942 60.886 54.039 63.75 57.125 C69.054 62.944 73.893 69.065 78.687 75.306 C79.868 76.829 81.075 78.332 82.285 79.832 C96.129 97.19 108.168 116.327 118.791 135.791 C119.859 137.742 120.949 139.677 122.051 141.609 C138.198 170.628 160 212.41 160 246 C106.455 257.955 38.737 241.752 -9.657 218.143 C-12.094 216.954 -14.544 215.795 -16.996 214.637 C-39.288 203.951 -60.175 190.014 -79 174 C-80.228 172.978 -81.457 171.957 -82.688 170.938 C-83.832 169.978 -83.832 169.978 -85 169 C-84.442 165.42 -83.571 162.912 -81.594 159.883 C-81.102 159.119 -80.61 158.355 -80.103 157.568 C-79.574 156.762 -79.045 155.956 -78.5 155.125 C-77.396 153.41 -76.293 151.694 -75.191 149.977 C-74.646 149.13 -74.101 148.283 -73.54 147.411 C-66.871 136.967 -60.75 126.173 -54.566 115.438 C-52.513 111.876 -50.418 108.343 -48.312 104.812 C-45.072 99.254 -42.191 93.541 -39.355 87.77 C-37.596 84.189 -35.799 80.629 -33.988 77.074 C-21.98 53.44 -11.733 29.236 -2.041 4.584 C-1 2 -1 2 0 0 Z "/>
<path d="M0 0 C1.397 -0.01 1.397 -0.01 2.823 -0.021 C5.88 -0.039 8.936 -0.045 11.992 -0.047 C13.033 -0.048 14.074 -0.049 15.146 -0.05 C33.232 -0.038 50.925 0.831 68.867 3.203 C69.961 3.348 71.056 3.492 72.183 3.641 C88.914 5.938 105.414 9.427 121.867 13.203 C123.105 13.482 123.105 13.482 124.368 13.767 C136.174 16.474 147.631 20.333 159.117 24.141 C160.266 24.52 160.266 24.52 161.438 24.908 C174.29 29.169 187.007 33.742 199.242 39.578 C200.5 40.177 201.758 40.776 203.016 41.375 C203.648 41.677 204.281 41.98 204.933 42.291 C206.873 43.206 208.824 44.091 210.781 44.969 C252.274 63.736 289.897 90.909 323.203 121.758 C325.391 123.766 327.607 125.715 329.867 127.641 C337.464 134.238 344.595 141.505 351.109 149.168 C353.22 151.611 355.42 153.962 357.617 156.328 C362.943 162.158 367.8 168.311 372.581 174.592 C373.857 176.233 373.857 176.233 375.337 177.779 C377.472 180.084 378.818 181.542 379.055 184.738 C377.379 188.216 374.818 190.273 371.867 192.641 C371.243 193.156 370.62 193.672 369.977 194.204 C368.636 195.311 367.291 196.412 365.942 197.509 C363.899 199.178 361.877 200.87 359.859 202.57 C349.174 211.539 338.091 219.923 326.867 228.203 C325.486 229.228 324.104 230.252 322.723 231.277 C288.898 256.307 252.628 277.743 214.805 296.141 C214.168 296.452 213.531 296.763 212.875 297.084 C205.913 300.477 198.892 303.72 191.746 306.707 C189.947 307.464 189.947 307.464 188.112 308.237 C184.748 309.239 183.139 309.371 179.867 308.203 C177.762 306.121 177.762 306.121 175.68 303.391 C174.9 302.39 174.12 301.39 173.316 300.359 C172.508 299.318 171.7 298.276 170.867 297.203 C169.25 295.259 167.625 293.322 165.992 291.391 C154.738 277.896 144.162 263.864 133.825 249.659 C127.614 241.127 121.163 232.796 114.657 224.488 C109.374 217.742 104.111 210.98 98.867 204.203 C98.209 203.353 97.551 202.503 96.873 201.626 C88.583 190.896 80.528 180.079 72.963 168.825 C71.501 166.661 69.999 164.525 68.492 162.391 C50.594 136.857 33.402 110.81 16.449 84.642 C14.959 82.344 13.463 80.05 11.965 77.758 C5.324 67.577 -1.116 57.278 -7.461 46.911 C-9.173 44.138 -10.914 41.385 -12.66 38.633 C-13.777 36.844 -14.892 35.055 -16.008 33.266 C-16.538 32.443 -17.069 31.621 -17.615 30.774 C-21.103 25.115 -21.103 25.115 -21.23 21.188 C-19.712 17.058 -17.798 13.25 -15.695 9.391 C-15.287 8.615 -14.879 7.84 -14.459 7.041 C-10.632 -0.095 -8.034 0.039 0 0 Z "/>
<path d="M0 0 C4.309 2.405 7.958 5.315 11.75 8.438 C71.911 57.095 149.799 84.7 227.173 84.206 C230.13 84.187 233.086 84.185 236.043 84.186 C247.726 84.163 259.344 83.789 271 83 C273.223 95.895 274.772 108.699 275.688 121.75 C275.75 122.623 275.813 123.496 275.878 124.395 C276.845 137.948 277.58 151.411 277 165 C276.928 166.703 276.928 166.703 276.855 168.44 C275.351 200.982 270.811 232.405 263 264 C262.713 265.166 262.425 266.333 262.129 267.535 C255.543 293.692 245.764 318.761 234 343 C233.612 343.807 233.223 344.615 232.823 345.446 C223.035 365.723 223.035 365.723 216 371 C215.257 371.949 214.515 372.898 213.75 373.875 C210.571 377.883 206.314 380.35 202 383 C198.377 380.585 197.652 378.189 196.125 374.312 C184.598 346.725 166.651 320.84 149.75 296.312 C149.291 295.646 148.832 294.979 148.359 294.292 C142.969 286.484 137.502 278.73 132 271 C131.482 270.27 130.964 269.54 130.43 268.789 C123.256 258.701 115.842 248.841 108.203 239.102 C105.59 235.767 103.028 232.399 100.5 229 C90.787 215.978 80.672 203.28 70.39 190.706 C68.494 188.379 66.62 186.035 64.75 183.688 C61.293 179.354 57.79 175.059 54.273 170.773 C52.795 168.97 51.321 167.163 49.852 165.352 C44.685 158.991 39.388 152.754 34.043 146.543 C31.158 143.189 28.293 139.817 25.438 136.438 C24.986 135.904 24.535 135.37 24.07 134.82 C21.819 132.157 19.571 129.491 17.324 126.824 C11.381 119.776 5.374 112.785 -0.676 105.828 C-2.889 103.283 -5.094 100.73 -7.293 98.172 C-13.048 91.483 -18.881 84.893 -24.892 78.432 C-28.126 74.956 -31.306 71.446 -34.395 67.84 C-35.57 66.493 -36.781 65.176 -38.012 63.879 C-38.996 62.825 -38.996 62.825 -40 61.75 C-40.598 61.126 -41.196 60.502 -41.812 59.859 C-43 58 -43 58 -42.996 56.137 C-41.539 53.01 -39.335 50.615 -37.062 48.062 C-31.931 42.149 -27.11 36.065 -22.385 29.823 C-20.853 27.806 -19.31 25.797 -17.766 23.789 C-11.731 15.938 -5.76 8.056 0 0 Z "/>
<path d="M0 0 C0.612 0.287 1.225 0.575 1.855 0.871 C2.35 2.356 2.35 2.356 2.855 3.871 C3.515 3.871 4.175 3.871 4.855 3.871 C6.206 5.383 7.485 6.959 8.73 8.559 C12.325 13.058 16.051 17.35 19.98 21.559 C21.014 22.668 22.048 23.777 23.082 24.887 C23.564 25.404 24.047 25.922 24.544 26.455 C29.886 32.223 34.921 38.274 40.031 44.246 C43.789 48.635 47.567 53.007 51.355 57.371 C57.552 64.512 63.719 71.679 69.855 78.871 C70.531 79.663 70.531 79.663 71.221 80.47 C79.214 89.843 87.045 99.346 94.855 108.871 C95.659 109.849 96.462 110.828 97.289 111.836 C99.482 114.511 101.669 117.191 103.855 119.871 C104.338 120.462 104.821 121.053 105.319 121.662 C112.427 130.364 119.468 139.111 126.375 147.973 C127.991 150.045 129.611 152.114 131.23 154.184 C138.894 163.99 146.442 173.874 153.855 183.871 C154.407 184.615 154.959 185.358 155.527 186.125 C159.084 190.925 162.625 195.737 166.156 200.557 C167.717 202.682 169.287 204.801 170.859 206.918 C194.425 238.866 218.073 273.1 233.73 309.684 C234.071 310.472 234.411 311.26 234.761 312.073 C236.982 317.49 236.982 317.49 235.855 320.871 C233.945 322.202 233.945 322.202 231.438 323.543 C230.062 324.287 230.062 324.287 228.66 325.045 C227.672 325.565 226.685 326.085 225.668 326.621 C224.655 327.161 223.642 327.701 222.598 328.258 C220.581 329.329 218.561 330.396 216.539 331.458 C214.437 332.565 212.348 333.688 210.266 334.828 C206.848 336.636 203.384 338.293 199.855 339.871 C198.974 340.266 198.093 340.661 197.186 341.068 C182.243 347.631 167.16 352.442 151.355 356.434 C150.121 356.751 150.121 356.751 148.862 357.075 C137.235 360.038 125.803 361.775 113.836 362.644 C111.774 362.88 109.864 363.359 107.855 363.871 C105.557 364.087 103.254 364.26 100.949 364.406 C100.277 364.449 99.604 364.492 98.911 364.537 C96.726 364.674 94.541 364.805 92.355 364.934 C91.609 364.978 90.863 365.023 90.094 365.069 C46.14 367.658 46.14 367.658 26.855 363.871 C25.647 360.246 26.01 357.233 26.293 353.496 C31.752 267.674 13.613 181.372 -48.044 62.57 C-48.566 61.749 -49.088 60.928 -49.625 60.082 C-50.088 59.363 -50.551 58.644 -51.028 57.904 C-52.202 55.767 -52.877 54.297 -53.145 51.871 C-51.907 50.039 -51.907 50.039 -49.973 48.147 C-48.895 47.075 -48.895 47.075 -47.796 45.982 C-47.004 45.218 -46.211 44.455 -45.395 43.668 C-44.588 42.871 -43.782 42.075 -42.952 41.254 C-40.361 38.698 -37.754 36.159 -35.145 33.621 C-32.568 31.094 -29.994 28.564 -27.423 26.031 C-25.821 24.455 -24.215 22.883 -22.604 21.316 C-17.875 16.689 -13.434 11.908 -9.145 6.871 C-7.934 5.501 -6.71 4.141 -5.457 2.809 C-4.917 2.219 -4.377 1.63 -3.82 1.023 C-2.145 -0.129 -2.145 -0.129 0 0 Z "/>
<path d="M0 0 C3.521 1.174 3.784 1.819 5.602 4.91 C6.087 5.727 6.572 6.543 7.073 7.384 C7.841 8.71 7.841 8.71 8.625 10.062 C9.427 11.428 9.427 11.428 10.246 12.821 C11.84 15.542 13.42 18.271 15 21 C15.8 22.36 16.601 23.719 17.402 25.078 C46.596 75.167 64.452 132.683 72 190 C72.195 191.417 72.39 192.833 72.586 194.25 C73.109 198.163 73.622 202.07 74 206 C74.09 206.923 74.18 207.847 74.272 208.798 C75.285 221.214 75.151 233.652 75.13 246.1 C75.125 250.019 75.13 253.937 75.137 257.855 C75.136 260.362 75.135 262.868 75.133 265.375 C75.135 266.539 75.137 267.702 75.139 268.901 C75.123 274.374 74.978 279.611 74 285 C49.375 286.101 23.806 279.986 1 271 C0.03 270.621 -0.94 270.242 -1.939 269.852 C-14.77 264.81 -27.456 259.469 -40 253.75 C-41.043 253.279 -42.086 252.809 -43.16 252.324 C-50.17 249.078 -56.559 245.251 -63 241 C-64.565 240.01 -66.132 239.024 -67.703 238.043 C-72.48 235.046 -77.242 232.026 -82 229 C-83.039 228.344 -83.039 228.344 -84.098 227.674 C-93.223 221.886 -101.472 215.504 -109.533 208.309 C-111.422 206.624 -113.336 204.969 -115.25 203.312 C-116.502 202.21 -117.752 201.106 -119 200 C-119.695 199.386 -120.39 198.773 -121.105 198.141 C-123.755 195.78 -126.38 193.394 -129 191 C-129.52 190.527 -130.04 190.054 -130.575 189.566 C-141.735 179.361 -152.426 168.682 -163.125 158 C-163.855 157.272 -164.585 156.545 -165.338 155.795 C-167.46 153.679 -169.578 151.559 -171.695 149.438 C-172.643 148.493 -172.643 148.493 -173.61 147.529 C-177.394 143.725 -180.989 139.804 -184.488 135.736 C-186.381 133.562 -188.382 131.52 -190.438 129.5 C-191.117 128.83 -191.796 128.159 -192.496 127.469 C-192.992 126.984 -193.489 126.499 -194 126 C-191.93 122.894 -191.466 122.517 -188.211 121.238 C-187.059 120.774 -187.059 120.774 -185.884 120.3 C-185.056 119.974 -184.228 119.648 -183.375 119.312 C-175.156 115.959 -167.221 112.295 -159.343 108.21 C-156.665 106.827 -153.977 105.463 -151.289 104.098 C-105.028 80.474 -61.488 51.491 -21.633 18.188 C-20.64 17.362 -19.648 16.538 -18.625 15.688 C-17.772 14.969 -16.918 14.251 -16.039 13.512 C-14 12 -14 12 -12 12 C-12 11.34 -12 10.68 -12 10 C-10.426 8.606 -8.79 7.283 -7.125 6 C-3.431 3.149 -3.431 3.149 0 0 Z "/>
  </g>
</svg>